<mxfile host="65bd71144e">
    <diagram id="38tdakEL0yMMa9uUX5aO" name="PÃ¡gina-1">
        <mxGraphModel dx="2329" dy="2511" grid="0" gridSize="10" guides="1" tooltips="1" connect="1" arrows="1" fold="1" page="0" pageScale="1" pageWidth="827" pageHeight="1169" math="0" shadow="0">
            <root>
                <mxCell id="0"/>
                <mxCell id="1" parent="0"/>
                <mxCell id="7" value="" style="rounded=0;whiteSpace=wrap;html=1;strokeColor=#4D9900;" vertex="1" parent="1">
                    <mxGeometry x="-501.92999999999995" y="-1225" width="361" height="173" as="geometry"/>
                </mxCell>
                <mxCell id="2" value="" style="rounded=0;whiteSpace=wrap;html=1;strokeColor=#4D9900;" parent="1" vertex="1">
                    <mxGeometry x="-501.92999999999995" y="-992" width="352" height="152" as="geometry"/>
                </mxCell>
                <mxCell id="8" style="edgeStyle=none;html=1;" edge="1" parent="1" source="4" target="5">
                    <mxGeometry relative="1" as="geometry"/>
                </mxCell>
                <mxCell id="4" value="CheckLastEventStatus" style="rounded=0;whiteSpace=wrap;html=1;strokeColor=#4D9900;" vertex="1" parent="1">
                    <mxGeometry x="-451.92999999999995" y="-930" width="175" height="60" as="geometry"/>
                </mxCell>
                <mxCell id="5" value="LoadLasyEventRepo" style="rounded=0;whiteSpace=wrap;html=1;strokeColor=#4D9900;" vertex="1" parent="1">
                    <mxGeometry x="-454.92999999999995" y="-1178" width="175" height="60" as="geometry"/>
                </mxCell>
                <mxCell id="10" value="" style="shape=image;verticalLabelPosition=bottom;labelBackgroundColor=#ffffff;verticalAlign=top;aspect=fixed;imageAspect=0;image=https://blog.cleancoder.com/uncle-bob/images/2012-08-13-the-clean-architecture/CleanArchitecture.jpg;" vertex="1" parent="1">
                    <mxGeometry x="-642" y="-779" width="641.15" height="471" as="geometry"/>
                </mxCell>
                <mxCell id="12" value="Domain" style="text;html=1;align=center;verticalAlign=middle;resizable=0;points=[];autosize=1;strokeColor=none;fillColor=none;" vertex="1" parent="1">
                    <mxGeometry x="-201.92999999999995" y="-1017" width="52" height="17" as="geometry"/>
                </mxCell>
                <mxCell id="13" value="Infra/geteways" style="text;html=1;align=center;verticalAlign=middle;resizable=0;points=[];autosize=1;strokeColor=none;fillColor=none;" vertex="1" parent="1">
                    <mxGeometry x="-228.92999999999995" y="-1252" width="88" height="17" as="geometry"/>
                </mxCell>
                <mxCell id="16" value="" style="rounded=0;whiteSpace=wrap;html=1;strokeColor=#4D9900;" vertex="1" parent="1">
                    <mxGeometry x="109" y="-764" width="361" height="173" as="geometry"/>
                </mxCell>
                <mxCell id="17" value="" style="rounded=0;whiteSpace=wrap;html=1;strokeColor=#4D9900;" vertex="1" parent="1">
                    <mxGeometry x="109" y="-531" width="571" height="152" as="geometry"/>
                </mxCell>
                <mxCell id="24" style="edgeStyle=none;html=1;" edge="1" parent="1" source="19" target="23">
                    <mxGeometry relative="1" as="geometry"/>
                </mxCell>
                <mxCell id="19" value="CheckLastEventStatus" style="rounded=0;whiteSpace=wrap;html=1;strokeColor=#4D9900;" vertex="1" parent="1">
                    <mxGeometry x="159" y="-469" width="175" height="60" as="geometry"/>
                </mxCell>
                <mxCell id="25" style="edgeStyle=none;html=1;entryX=0.5;entryY=0;entryDx=0;entryDy=0;" edge="1" parent="1" source="20" target="23">
                    <mxGeometry relative="1" as="geometry"/>
                </mxCell>
                <mxCell id="20" value="LoadLasyEventRepo" style="rounded=0;whiteSpace=wrap;html=1;strokeColor=#4D9900;" vertex="1" parent="1">
                    <mxGeometry x="156" y="-717" width="175" height="60" as="geometry"/>
                </mxCell>
                <mxCell id="21" value="Domain" style="text;html=1;align=center;verticalAlign=middle;resizable=0;points=[];autosize=1;strokeColor=none;fillColor=none;" vertex="1" parent="1">
                    <mxGeometry x="623" y="-557" width="52" height="17" as="geometry"/>
                </mxCell>
                <mxCell id="22" value="Infra/geteways" style="text;html=1;align=center;verticalAlign=middle;resizable=0;points=[];autosize=1;strokeColor=none;fillColor=none;" vertex="1" parent="1">
                    <mxGeometry x="382" y="-791" width="88" height="17" as="geometry"/>
                </mxCell>
                <mxCell id="23" value="ILoadLasyEventRepo" style="rounded=0;whiteSpace=wrap;html=1;strokeColor=#4D9900;" vertex="1" parent="1">
                    <mxGeometry x="436" y="-469" width="175" height="60" as="geometry"/>
                </mxCell>
            </root>
        </mxGraphModel>
    </diagram>
</mxfile>
